<?xml version="1.0" encoding="UTF-8"?>
<svg id="a" data-name="Ebene 2" xmlns="http://www.w3.org/2000/svg" viewBox="0 0 18.5 18.5">
  <path d="M9.25,4.875c-2.4126,0-4.375,1.9624-4.375,4.375s1.9624,4.375,4.375,4.375,4.375-1.9629,4.375-4.375-1.9629-4.375-4.375-4.375ZM9.25,12.875v-7.25c1.999,0,3.625,1.626,3.625,3.625s-1.626,3.625-3.625,3.625Z" fill="currentColor"/>
  <path d="M9.25,3c.2764,0,.5-.2236.5-.5V.5c0-.2764-.2236-.5-.5-.5s-.5.2236-.5.5v2c0,.2764.2236.5.5.5Z" fill="currentColor"/>
  <path d="M9.25,15.5c-.2764,0-.5.2236-.5.5v2c0,.2764.2236.5.5.5s.5-.2236.5-.5v-2c0-.2764-.2236-.5-.5-.5Z" fill="currentColor"/>
  <path d="M14.0234,4.9771c.1279,0,.2559-.0488.3535-.1465l1.4141-1.4141c.1953-.1953.1953-.5117,0-.707s-.5117-.1953-.707,0l-1.4141,1.4141c-.1953.1953-.1953.5117,0,.707.0977.0977.2256.1465.3535.1465Z" fill="currentColor"/>
  <path d="M4.1235,13.6699l-1.4141,1.4141c-.1953.1953-.1953.5117,0,.707.0977.0977.2256.1465.3535.1465s.2559-.0488.3535-.1465l1.4141-1.4141c.1953-.1953.1953-.5117,0-.707s-.5117-.1953-.707,0Z" fill="currentColor"/>
  <path d="M18,8.75h-2c-.2764,0-.5.2236-.5.5s.2236.5.5.5h2c.2764,0,.5-.2236.5-.5s-.2236-.5-.5-.5Z" fill="currentColor"/>
  <path d="M3,9.25c0-.2764-.2236-.5-.5-.5H.5c-.2764,0-.5.2236-.5.5s.2236.5.5.5h2c.2764,0,.5-.2236.5-.5Z" fill="currentColor"/>
  <path d="M14.377,13.6699c-.1953-.1953-.5117-.1953-.707,0s-.1953.5117,0,.707l1.4141,1.4141c.0977.0977.2256.1465.3535.1465s.2559-.0488.3535-.1465c.1953-.1953.1953-.5117,0-.707l-1.4141-1.4141Z" fill="currentColor"/>
  <path d="M4.1235,4.8306c.0977.0977.2256.1465.3535.1465s.2559-.0488.3535-.1465c.1953-.1953.1953-.5117,0-.707l-1.4141-1.4141c-.1953-.1953-.5117-.1953-.707,0s-.1953.5117,0,.707l1.4141,1.4141Z" fill="currentColor"/>
</svg>